<?xml version="1.0" encoding="utf-8"?>
<!-- Generator: Adobe Illustrator 16.0.3, SVG Export Plug-In . SVG Version: 6.00 Build 0)  -->
<!DOCTYPE svg PUBLIC "-//W3C//DTD SVG 1.1//EN" "http://www.w3.org/Graphics/SVG/1.1/DTD/svg11.dtd">
<svg version="1.1" id="Layer_1" xmlns="http://www.w3.org/2000/svg" xmlns:xlink="http://www.w3.org/1999/xlink" x="0px" y="0px"
	 width="72px" height="72px" viewBox="0 0 72 72" enable-background="new 0 0 72 72" xml:space="preserve">
<g>
	<path d="M21.857,30.163c-2.134,0-3.857,1.723-3.857,3.857c0,0.718,0.206,1.386,0.567,1.979C18.206,36.564,18,37.26,18,37.979
		c0,2.136,1.723,3.858,3.857,3.858c1.647,0,3.009-1.055,3.576-2.521h21.134c0.567,1.466,1.928,2.521,3.575,2.521
		c2.135,0,3.857-1.723,3.857-3.858c0-0.719-0.206-1.414-0.567-1.979C53.794,35.406,54,34.738,54,34.021
		c0-2.135-1.723-3.857-3.857-3.857c-1.647,0-3.008,1.053-3.575,2.519H25.433C24.866,31.216,23.504,30.163,21.857,30.163z"/>
</g>
</svg>
